<svg width="15" height="15" viewBox="0 0 15 15" xmlns="http://www.w3.org/2000/svg">
    <path fill-rule="evenodd" clip-rule="evenodd" d="M7.5 1.4375C4.15177 1.4375 1.4375 4.15177 1.4375 7.5C1.4375 10.8482 4.15177 13.5625 7.5 13.5625C10.8482 13.5625 13.5625 10.8482 13.5625 7.5C13.5625 7.1045 13.5247 6.7183 13.4526 6.34468L13.358 5.85373L14.3399 5.66437L14.4345 6.15532C14.5186 6.59102 14.5625 7.04062 14.5625 7.5C14.5625 11.4005 11.4005 14.5625 7.5 14.5625C3.59949 14.5625 0.4375 11.4005 0.4375 7.5C0.4375 3.59949 3.59949 0.4375 7.5 0.4375C8.99986 0.4375 10.3919 0.905603 11.536 1.70368L11.9461 1.98973L11.374 2.80991L10.964 2.52386C9.98217 1.83905 8.78873 1.4375 7.5 1.4375ZM14.7694 2.81265L14.4158 3.16621L7.85332 9.72871L7.49977 10.0823L7.14622 9.72871L4.33372 6.91621L3.98016 6.56265L4.68727 5.85555L5.04082 6.2091L7.49977 8.66805L13.7087 2.4591L14.0623 2.10555L14.7694 2.81265Z" fill="#2463EB"/>
</svg>
