<svg width="14" height="14" viewBox="0 0 14 14" fill="none" xmlns="http://www.w3.org/2000/svg">
<path fill-rule="evenodd" clip-rule="evenodd" d="M5.99918 2.00372L6.26417 2.23799L7.6536 3.46638L7.95328 3.73132L7.42339 4.33067L7.12372 4.06573L6.39923 3.42522V6.55986H9.94373L9.34588 6.0311L9.04626 5.7661L9.57626 5.16685L9.87588 5.43185L11.2648 6.66023L11.6035 6.95986L11.2648 7.25948L9.87588 8.48787L9.57626 8.75287L9.04626 8.15362L9.34588 7.88862L9.94373 7.35986H6.39923V10.4943L7.12312 9.85403L7.42274 9.58904L7.95274 10.1883L7.65312 10.4533L6.26423 11.6817L5.99923 11.916L5.73423 11.6817L4.34588 10.4538L4.04626 10.1888L4.57626 9.58951L4.87588 9.85451L5.59923 10.4943V7.35986H2.05581L2.65366 7.88862L2.95328 8.15362L2.42329 8.75287L2.12366 8.48787L0.734771 7.25948L0.395996 6.95986L0.734771 6.66023L2.12366 5.43185L2.42329 5.16685L2.95328 5.7661L2.65366 6.0311L2.05581 6.55986H5.59923V3.42545L4.87534 4.06568L4.57571 4.33068L4.04571 3.73143L4.34534 3.46643L5.73423 2.23805L5.99918 2.00372Z"/>
</svg>
